<svg width="90" height="90" viewBox="0 0 44.126 43.973"><g class="sun" clip-rule="evenodd"><path fill-rule="evenodd" d="M18.02 18.276h-3.376c-.412 0-.746.333-.746.743 0 .4.334.74.746.74h3.375c.41 0 .74-.34.74-.74 0-.41-.34-.75-.75-.75zm8.935-7.42c.41 0 .746-.332.746-.742V6.75c0-.41-.33-.743-.74-.743s-.74.333-.74.744v3.37c0 .41.334.746.745.746zm7.16 2.062l2.71-2.698c.29-.287.29-.753 0-1.04-.288-.286-.753-.286-1.04 0l-2.71 2.7c-.29.288-.29.752 0 1.038.29.29.755.29 1.04 0zm-14.7 11.434l-2.71 2.7c-.287.288-.287.752 0 1.042.292.285.758.285 1.044 0l2.7-2.702c.29-.286.29-.75 0-1.04-.29-.287-.75-.287-1.04 0zm.695-11.104c.29.29.762.29 1.053 0 .292-.29.292-.76 0-1.05L18.44 9.484c-.292-.29-.76-.29-1.052 0-.292.29-.292.756 0 1.047l2.722 2.72zm6.845 13.932c-.41 0-.744.33-.744.74v3.368c0 .41.34.742.75.742s.75-.333.75-.742V27.92c0-.41-.334-.74-.745-.74zm6.84-2.39c-.29-.29-.758-.29-1.048 0-.292.29-.292.757 0 1.047l2.722 2.715c.28.29.76.29 1.05 0 .29-.29.29-.76 0-1.05l-2.73-2.712zm5.473-6.514h-3.38c-.412 0-.742.333-.742.743 0 .4.33.74.74.74h3.382c.41 0 .744-.34.744-.74 0-.41-.334-.75-.744-.75zM26.955 24.21"/><ellipse fill="none" stroke="#000" stroke-width="1.5" stroke-miterlimit="10" cx="27.161" cy="19.227" rx="6.257" ry="6.305"/></g><path fill="#FFD301" d="M6.227 28.818l1.875 3.625 24.813-.188 2.437-3.5-1.812-5.062-2.188-1.063-3.312-3.937-4.977-.188-4.96-4.062-6.938 2.125-2.75 6.125-2.813 4.625"/><path d="M32.107 21.662c-.933-2.474-3.325-4.24-6.124-4.24-.642 0-1.267.094-1.857.272-1.595-2.58-4.444-4.292-7.696-4.292-4.935 0-8.948 3.95-9.05 8.855-1.808 1.046-3.02 2.997-3.02 5.226 0 3.33 2.7 6.036 6.036 6.036H30.51c3.33 0 6.038-2.72 6.038-6.04 0-2.78-1.882-5.13-4.44-5.82zm-1.596 9.843H10.39c-2.215 0-4.017-1.798-4.017-4.023 0-1.9 1.32-3.502 3.104-3.92-.057-.358-.088-.73-.088-1.11 0-3.89 3.15-7.036 7.04-7.036 3.18 0 5.86 2.105 6.74 4.998.77-.613 1.75-.976 2.81-.976 2.33 0 4.25 1.758 4.5 4.02h.03c2.22 0 4.02 1.804 4.02 4.023 0 2.23-1.8 4.03-4.02 4.03zm0 0"/></svg>