<svg width="30" height="23" viewBox="0 0 30 23" xmlns="http://www.w3.org/2000/svg"><g fill="none" fill-rule="evenodd"><path d="M22.368 12.632c-.746-1.977-2.657-3.387-4.893-3.387-.514 0-1.014.074-1.485.216-1.275-2.06-3.55-3.43-6.15-3.43-3.944 0-7.15 3.16-7.233 7.08-1.444.837-2.414 2.396-2.414 4.178 0 2.66 2.158 4.822 4.825 4.822h16.074c2.66 0 4.825-2.167 4.825-4.823 0-2.222-1.505-4.094-3.55-4.652zM21.092 20.5H5.014c-1.772 0-3.21-1.44-3.21-3.216 0-1.52 1.055-2.8 2.48-3.133-.047-.282-.07-.58-.07-.882 0-3.11 2.517-5.623 5.626-5.623 2.54 0 4.686 1.683 5.387 3.995.618-.49 1.396-.78 2.248-.78 1.863 0 3.394 1.404 3.593 3.212h.024c1.774 0 3.215 1.443 3.215 3.217 0 1.77-1.438 3.213-3.215 3.213zm1.87-15.503c.306.225.74.16.964-.147l1.326-1.8c.227-.307.16-.738-.15-.964-.305-.225-.74-.16-.963.15L22.81 4.03c-.226.307-.162.74.147.965m4.23 5.467l2.08-.533c.374-.06.63-.41.57-.78-.06-.375-.407-.63-.78-.57l-2.083.532c-.37.057-.624.405-.568.776.06.376.406.632.78.57" fill="#000"/><path d="M13.85 7.942c1.91-2.606 5.552-3.182 8.135-1.29 2.583 1.894 3.134 5.54 1.224 8.147" stroke="#000" stroke-width="1.5"/><path d="M17.432 3.592c.37-.075.613-.44.54-.812L17.53.587c-.073-.374-.44-.614-.813-.537-.372.076-.617.44-.54.813l.44 2.19c.073.372.435.615.812.54m-5.077 3.062c.234-.297.183-.733-.117-.967l-1.76-1.384c-.298-.237-.732-.182-.967.12-.233.298-.18.732.12.966l1.754 1.382c.3.236.732.185.968-.117m15.67 10.305c.235-.297.183-.734-.116-.967L26.15 14.61c-.297-.238-.732-.183-.966.117-.233.3-.182.734.118.968l1.753 1.382c.3.236.733.185.97-.117" fill="#000"/></g></svg>