<svg width="31" height="19" viewBox="0 0 31 19" xmlns="http://www.w3.org/2000/svg"><g fill="none" fill-rule="evenodd"><path d="M1.004 17.15c0 .495.3.895.67.895h27.57c.37 0 .67-.4.67-.894H1.004z" fill="#000"/><path d="M1.004 17.15c0 .495.3.895.67.895h27.57c.37 0 .67-.4.67-.894H1.004z" stroke="#000" stroke-linecap="round"/><path d="M18.37 16.513c0 .443-.212.8-.473.8h-4.592c-.262 0-.475-.357-.475-.8" fill="#FFF"/><path d="M3 17.348V2.05C3 1.418 3.514.906 4.146.906H26.45c.63 0 1.143.512 1.143 1.144v15.298" stroke="#000" stroke-width="1.5"/></g></svg>