<svg width="13" height="13" viewBox="0 0 13 13" xmlns="http://www.w3.org/2000/svg"><g fill="none" fill-rule="evenodd"><path d="M11.858 9.944c-.906.898-2.167 1.454-3.56 1.454-2.757 0-4.992-2.175-4.992-4.86 0-2.686 2.235-4.862 4.99-4.862 1.358 0 2.59.528 3.49 1.386" stroke="#000" stroke-width="1.5" stroke-linecap="round"/><path d="M.588 5.585c0 .224.187.406.416.406h7.753c.23 0 .417-.18.417-.404 0-.224-.187-.407-.417-.407H1.004c-.23 0-.416.182-.416.406m0 1.904c0 .224.187.406.416.406h7.753c.23 0 .417-.182.417-.406 0-.224-.187-.406-.417-.406H1.004c-.23 0-.416.182-.416.406" fill="#000"/></g></svg>