<svg width="16" height="14" viewBox="0 0 16 14" xmlns="http://www.w3.org/2000/svg"><g fill="none" fill-rule="evenodd"><path d="M14.932 11.383c-1.14 1.143-2.728 1.85-4.484 1.85-3.47 0-6.285-2.768-6.285-6.185C4.163 3.63 6.978.86 10.448.86c1.71 0 3.26.673 4.393 1.764" stroke="#000" stroke-width="1.5" stroke-linecap="round"/><path d="M.74 5.835c0 .286.236.518.525.518h9.763c.29 0 .524-.232.524-.518 0-.285-.235-.518-.524-.518H1.265c-.29 0-.525.233-.525.518m0 2.425c0 .285.236.517.525.517h9.763c.29 0 .524-.232.524-.517 0-.285-.235-.517-.524-.517H1.265c-.29 0-.525.232-.525.517" fill="#000"/></g></svg>