<svg width="18" height="16" viewBox="0 0 18 16" xmlns="http://www.w3.org/2000/svg"><g fill="none" fill-rule="evenodd"><path d="M16.8 13.01c-1.284 1.305-3.07 2.115-5.046 2.115-3.904 0-7.07-3.165-7.07-7.07 0-3.906 3.166-7.07 7.07-7.07 1.923 0 3.668.767 4.942 2.014" stroke="#000" stroke-width="1.5" stroke-linecap="round"/><path d="M.833 6.67c0 .325.265.59.59.59h10.983c.326 0 .59-.265.59-.59 0-.327-.264-.593-.59-.593H1.423c-.325 0-.59.266-.59.592m0 2.77c0 .326.265.59.59.59h10.983c.326 0 .59-.264.59-.59 0-.326-.264-.59-.59-.59H1.423c-.325 0-.59.264-.59.59" fill="#000"/></g></svg>