<svg width="26" height="28" viewBox="0 0 26 28" xmlns="http://www.w3.org/2000/svg"><g fill="none" fill-rule="evenodd"><path d="M8.73 19.804l-2.992 1.98" fill="#000"/><path d="M8.73 19.804l-2.992 1.98" stroke="#000" stroke-width=".7" stroke-linecap="round"/><path d="M5.823 19.688L8.647 21.9" fill="#000"/><path d="M5.823 19.688L8.647 21.9" stroke="#000" stroke-width=".7" stroke-linecap="round"/><path d="M7.226 19l.015 3.588" fill="#000"/><path d="M7.226 19l.015 3.588" stroke="#000" stroke-width=".7" stroke-linecap="round"/><path d="M13.354 24.427l-2.994 1.98" fill="#000"/><path d="M13.354 24.427l-2.994 1.98" stroke="#000" stroke-width=".7" stroke-linecap="round"/><path d="M10.443 24.31l2.825 2.213" fill="#000"/><path d="M10.443 24.31l2.825 2.213" stroke="#000" stroke-width=".7" stroke-linecap="round"/><path d="M11.85 23.622l.013 3.588" fill="#000"/><path d="M11.85 23.622l.013 3.588" stroke="#000" stroke-width=".7" stroke-linecap="round"/><path d="M16.82 18.65l-2.992 1.978" fill="#000"/><path d="M16.82 18.65l-2.992 1.978" stroke="#000" stroke-width=".7" stroke-linecap="round"/><path d="M13.91 18.53l2.824 2.216" fill="#000"/><path d="M13.91 18.53l2.824 2.216" stroke="#000" stroke-width=".7" stroke-linecap="round"/><path d="M15.315 17.845l.015 3.587" fill="#000"/><path d="M15.315 17.845l.015 3.587" stroke="#000" stroke-width=".7" stroke-linecap="round"/><path d="M22.598 23.27l-2.994 1.98" fill="#000"/><path d="M22.598 23.27l-2.994 1.98" stroke="#000" stroke-width=".7" stroke-linecap="round"/><path d="M19.69 23.154l2.822 2.214" fill="#000"/><path d="M19.69 23.154l2.822 2.214" stroke="#000" stroke-width=".7" stroke-linecap="round"/><path d="M21.093 22.467l.015 3.588" fill="#000"/><path d="M21.093 22.467l.015 3.588" stroke="#000" stroke-width=".7" stroke-linecap="round"/><path d="M22.368 6.632c-.746-1.977-2.657-3.387-4.893-3.387-.514 0-1.014.074-1.485.216C14.715 1.4 12.44.03 9.84.03c-3.944 0-7.15 3.157-7.233 7.077C1.163 7.943.193 9.502.193 11.284c0 2.66 2.158 4.822 4.824 4.822h16.075c2.66 0 4.825-2.166 4.825-4.822 0-2.222-1.505-4.094-3.55-4.652zm-1.276 7.866H5.014c-1.772 0-3.21-1.437-3.21-3.214 0-1.52 1.055-2.8 2.48-3.133-.047-.286-.07-.584-.07-.886 0-3.11 2.517-5.623 5.626-5.623 2.54 0 4.686 1.683 5.387 3.995.618-.49 1.396-.78 2.248-.78 1.863 0 3.394 1.405 3.593 3.213h.024c1.774 0 3.215 1.442 3.215 3.216 0 1.773-1.438 3.214-3.215 3.214z" fill="#000"/></g></svg>