<svg width="25" height="25" viewBox="0 0 25 25" xmlns="http://www.w3.org/2000/svg"><g stroke="#000" stroke-linejoin="round" fill="none" fill-rule="evenodd"><path d="M14.763 13.947c.824.373 1.738.58 2.7.58 3.62 0 6.556-2.935 6.556-6.555 0-3.62-2.94-6.555-6.56-6.555-3.62 0-6.554 2.935-6.554 6.555 0 .956.204 1.864.573 2.683L1.466 20.84 5.3 23.376l1.887-1.727-.113-2.384 2.433.115.234-2.906 3.005-.222 2.02-2.307z" stroke-width="1.5"/><path d="M20.89 6.408c0 .79-.64 1.43-1.43 1.43-.79 0-1.43-.64-1.43-1.43 0-.79.64-1.43 1.43-1.43.79 0 1.43.64 1.43 1.43z"/></g></svg>