<svg width="100" height="100" viewBox="0 0 44.126 43.973"><g class="regen"><path class="drop one" d="M25.352 31.004c-.5 0-.91.403-.91.917v1.8c0 .51.403.92.91.92.5 0 .91-.403.91-.92v-1.8c-.002-.5-.405-.914-.91-.914zm0 0"/><path class="drop two" d="M18.09 31.004c-.505 0-.91.403-.91.917v1.8c0 .51.404.92.91.92.5 0 .904-.403.904-.92v-1.8c0-.5-.404-.914-.904-.914zm0 0"/><path class="drop three" d="M28.982 29.19c-.5 0-.908.404-.908.918v1.795c0 .506.403.917.908.917.5 0 .91-.402.91-.917v-1.795c0-.51-.403-.918-.91-.918zm0 0"/><path class="drop" d="M21.72 29.19c-.5 0-.91.404-.91.918v1.795c0 .506.404.917.91.917.502 0 .91-.402.91-.917v-1.795c0-.51-.403-.918-.91-.918zm0 0"/><path class="drop four" d="M14.454 29.19c-.5 0-.903.404-.903.918v1.795c0 .506.406.917.906.917.506 0 .91-.402.91-.917v-1.795c0-.51-.404-.918-.91-.918zm0 0"/></g><path class="cloud" d="M32.24 16.132c-.842-2.234-3-3.827-5.527-3.827-.58 0-1.145.083-1.677.245-1.44-2.328-4.01-3.875-6.946-3.875-4.456 0-8.077 3.565-8.17 7.992-1.632.945-2.727 2.705-2.727 4.718 0 3.006 2.438 5.448 5.448 5.448H30.8c3.005 0 5.448-2.447 5.448-5.448 0-2.51-1.697-4.625-4.008-5.253zm-1.44 8.885H12.637c-2 0-3.626-1.624-3.626-3.632 0-1.716 1.196-3.162 2.804-3.538-.052-.323-.08-.66-.08-1.002 0-3.512 2.846-6.352 6.358-6.352 2.87 0 5.295 1.9 6.084 4.512.7-.555 1.578-.883 2.54-.883 2.105 0 3.834 1.587 4.06 3.63h.027c2.005 0 3.63 1.628 3.63 3.632s-1.62 3.633-3.63 3.633zm0 0"/></svg>