<svg width="26" height="24" viewBox="0 0 26 24" xmlns="http://www.w3.org/2000/svg"><path d="M17.623 20.062c-.53 0-.963.427-.963.97v1.905c0 .536.427.972.963.972.53 0 .96-.43.96-.976V21.03c0-.534-.426-.97-.96-.97zm-7.685 0c-.534 0-.96.427-.96.97v1.905c0 .536.426.972.96.972.53 0 .957-.43.957-.976V21.03c0-.534-.426-.97-.957-.97zm11.527-1.918c-.53 0-.96.426-.96.97v1.9c0 .535.425.97.96.97.53 0 .96-.425.96-.97v-1.9c0-.538-.425-.97-.96-.97zm-7.685 0c-.528 0-.962.426-.962.97v1.9c0 .535.428.97.963.97.535 0 .965-.425.965-.97v-1.9c0-.538-.425-.97-.96-.97zm-7.69 0c-.527 0-.954.426-.954.97v1.9c0 .535.427.97.955.97.54 0 .967-.425.967-.97v-1.9c0-.538-.427-.97-.963-.97zM22.294 6.69c-.746-1.975-2.657-3.385-4.894-3.385-.513 0-1.013.074-1.484.215C14.64 1.46 12.364.09 9.766.09c-3.944 0-7.152 3.157-7.233 7.077C1.09 8.003.12 9.56.12 11.343c0 2.66 2.156 4.823 4.823 4.823h16.075c2.66 0 4.825-2.166 4.825-4.823 0-2.22-1.505-4.094-3.55-4.652zm-1.276 7.868H4.938c-1.77 0-3.21-1.437-3.21-3.215 0-1.52 1.057-2.8 2.48-3.132-.045-.283-.07-.58-.07-.883 0-3.11 2.52-5.623 5.628-5.623 2.54 0 4.686 1.683 5.386 3.995.62-.49 1.397-.78 2.248-.78 1.864 0 3.395 1.403 3.594 3.212h.024c1.774 0 3.215 1.443 3.215 3.216s-1.438 3.215-3.215 3.215z" fill-rule="evenodd"/></svg>