<svg width="24" height="24" viewBox="0 0 24 24" xmlns="http://www.w3.org/2000/svg"><g fill="none" fill-rule="evenodd"><circle cx="11" cy="11" r="11" stroke="#8A7307" stroke-width="2" fill="#FFF" transform="translate(1 1)"/><path d="M13 10.398v6.606c0 .55-.444.996-1 .996-.552 0-1-.445-1-.996v-6.762L9.212 12.16c-.378.404-1.01.43-1.415.05-.404-.376-.433-1-.048-1.415l3.404-3.652c.378-.405 1.01-.43 1.416-.052.077.073.14.153.19.24l3.435 3.435c.392.392.395 1.023.002 1.416-.39.39-1.017.4-1.416 0L13 10.397z" stroke="#FFD301" fill="#D8D8D8"/></g></svg>