<svg width="90" height="90" viewBox="0 0 44.126 43.973"><path d="M34.71 13.37c-.953-2.527-3.4-4.333-6.26-4.333-.657 0-1.296.096-1.9.277-1.63-2.637-4.543-4.39-7.867-4.39-5.046 0-9.15 4.04-9.254 9.055-1.85 1.07-3.09 3.06-3.09 5.34 0 3.406 2.76 6.17 6.17 6.17h20.57c3.403 0 6.17-2.77 6.17-6.17 0-2.84-1.924-5.237-4.54-5.95zm-1.63 10.066H12.506c-2.266 0-4.108-1.84-4.108-4.115 0-1.94 1.35-3.58 3.172-4.004-.058-.366-.09-.747-.09-1.133 0-3.977 3.223-7.194 7.2-7.194 3.25 0 5.997 2.15 6.892 5.11.792-.627 1.787-1 2.876-1 2.384 0 4.343 1.798 4.6 4.114h.03c2.27 0 4.112 1.845 4.112 4.11 0 2.27-1.838 4.117-4.113 4.117zm0 0" class="cloud"/><g class="test" stroke="#000" stroke-width=".5" stroke-linecap="round" stroke-miterlimit="10"><path d="M16.01 30.323l-3.838 2.538m.108-2.686l3.622 2.84m-1.822-3.72l.02 4.602" class="ice one"/><path d="M21.942 36.253l-3.84 2.54m.108-2.69l3.623 2.84m-1.823-3.72l.02 4.6" class="ice two"/><path d="M26.39 28.84l-3.84 2.538m.107-2.688l3.624 2.84m-1.82-3.723l.02 4.604" class="ice three"/><path d="M33.802 34.77l-3.84 2.54m.108-2.69l3.623 2.84m-1.82-3.723l.017 4.604" class="ice four"/></g></svg>