<svg width="28" height="28" viewBox="0 0 28 28" xmlns="http://www.w3.org/2000/svg"><g fill="none" fill-rule="evenodd"><path d="M4.278 12.94H.745c-.43 0-.78.348-.78.78 0 .43.35.778.78.778h3.533c.43 0 .78-.35.78-.78 0-.43-.35-.78-.78-.78M13.63.066c-.43 0-.78.35-.78.78v3.53c0 .43.35.778.78.778.43 0 .78-.35.78-.778V.846c0-.43-.35-.78-.78-.78m7.495 7.25l2.833-2.83c.304-.3.304-.79 0-1.09-.3-.3-.787-.3-1.087 0l-2.834 2.83c-.302.304-.302.79 0 1.09.304.304.79.304 1.09 0m-15.386 12L2.904 22.15c-.303.3-.303.786 0 1.09.304.3.792.3 1.092 0l2.83-2.834c.307-.3.307-.788 0-1.09-.297-.302-.785-.302-1.086 0m.726-11.653c.304.304.797.304 1.102 0 .306-.303.306-.798 0-1.102l-2.85-2.845c-.306-.303-.797-.303-1.1 0-.307.304-.307.795 0 1.1l2.848 2.85m7.164 14.618c-.43 0-.78.346-.78.776v3.533c0 .428.35.778.78.778.43 0 .78-.35.78-.777V23.06c0-.43-.35-.777-.78-.777m7.16-2.51c-.304-.302-.794-.302-1.097 0-.307.305-.307.796 0 1.1l2.847 2.85c.303.304.8.304 1.102 0 .307-.304.307-.8 0-1.103l-2.852-2.846m5.727-6.834h-3.54c-.43 0-.775.348-.775.78 0 .43.346.778.776.778h3.54c.427 0 .777-.35.777-.78 0-.43-.35-.78-.778-.78" fill="#000"/><path d="M20.393 13.936c0 3.656-2.933 6.617-6.55 6.617-3.615 0-6.546-2.96-6.546-6.617 0-3.655 2.93-6.616 6.547-6.616 3.616 0 6.55 2.96 6.55 6.616z" stroke="#000" stroke-width="1.5"/></g></svg>