<svg width="90" height="90" viewBox="0 0 44.126 43.973"><g class="wifi-land"><path class="one" d="M19.52 32.934c0 1.288 1.04 2.327 2.326 2.327 1.29 0 2.33-1.033 2.33-2.32 0-1.29-1.04-2.33-2.33-2.33-1.268 0-2.327 1.04-2.327 2.33z"/><path class="two" d="M32.055 22.6c.333 0 .668-.146.917-.395.457-.5.435-1.29-.083-1.77-3.02-2.765-6.93-4.303-11.048-4.303-4.055 0-7.942 1.498-10.937 4.22-.52.458-.54 1.25-.084 1.768.458.52 1.25.54 1.77.084 2.536-2.308 5.84-3.577 9.27-3.577 3.475 0 6.8 1.29 9.337 3.64.25.228.54.332.85.332zm0 0"/><path class="three" d="M27.397 28.19c.334 0 .667-.144.917-.393.457-.5.435-1.29-.083-1.768-1.742-1.607-4.01-2.5-6.36-2.5s-4.592.873-6.32 2.432c-.52.457-.54 1.248-.08 1.767.457.52 1.247.54 1.768.083 1.27-1.165 2.93-1.788 4.637-1.788 1.748 0 3.41.643 4.678 1.828.25.23.56.333.85.333zm0 0"/><path class="four" d="M37.9 17.525c.33 0 .664-.146.913-.394.458-.493.437-1.29-.083-1.762-4.616-4.262-10.625-6.59-16.904-6.59-6.217 0-12.185 2.308-16.778 6.466-.52.457-.542 1.248-.083 1.767.457.52 1.247.54 1.768.083 4.136-3.765 9.502-5.824 15.094-5.824 5.656 0 11.06 2.1 15.22 5.925.248.207.56.332.852.332zm0 0"/></g></svg>