<svg width="31" height="24" viewBox="0 0 31 24" xmlns="http://www.w3.org/2000/svg" xmlns:xlink="http://www.w3.org/1999/xlink"><defs><path id="a" d="M.346.06h30.596v23.468H.346V.06z"/></defs><g fill="none" fill-rule="evenodd"><path d="M13.518 21.45c0 1.14.923 2.06 2.06 2.06 1.143 0 2.064-.92 2.064-2.06 0-1.142-.92-2.063-2.063-2.063-1.13 0-2.07.92-2.07 2.062m11.1-9.15c.3 0 .59-.13.81-.35.405-.44.387-1.14-.073-1.57-2.67-2.45-6.13-3.81-9.775-3.81-3.593 0-7.03 1.325-9.683 3.736-.46.402-.48 1.103-.075 1.56.402.46 1.103.48 1.564.077 2.246-2.043 5.17-3.167 8.21-3.167 3.07 0 6.017 1.14 8.26 3.223.223.202.48.294.754.294z" fill="#000"/><mask id="b" fill="#fff"><use xlink:href="#a"/></mask><path d="M20.492 17.252c.295 0 .59-.128.813-.35.402-.44.384-1.14-.074-1.564-1.54-1.418-3.55-2.21-5.63-2.21s-4.07.774-5.59 2.155c-.46.404-.48 1.105-.07 1.563.405.46 1.104.48 1.564.075 1.123-1.03 2.596-1.58 4.106-1.58 1.544 0 3.015.57 4.137 1.62.223.2.5.3.755.3zM29.79 7.81c.293 0 .587-.13.808-.35.405-.44.387-1.14-.073-1.564C26.438 2.123 21.12.06 15.563.06 10.058.06 4.775 2.104.708 5.786.248 6.19.228 6.89.635 7.35c.403.46 1.104.48 1.564.073 3.66-3.33 8.41-5.153 13.36-5.153 5 0 9.79 1.857 13.47 5.245.22.183.49.294.75.294z" fill="#000" mask="url(#b)"/></g></svg>