<svg width="21" height="18" viewBox="0 0 21 18" xmlns="http://www.w3.org/2000/svg"><path d="M8.518 15.45c0 1.14.923 2.06 2.06 2.06 1.143 0 2.064-.92 2.064-2.06 0-1.142-.92-2.063-2.063-2.063-1.126 0-2.065.92-2.065 2.062m11.1-9.15c.297 0 .59-.13.812-.35.404-.44.386-1.14-.074-1.565-2.67-2.448-6.13-3.81-9.775-3.81C6.984.575 3.548 1.9.894 4.312.436 4.716.414 5.417.82 5.875c.405.46 1.106.48 1.567.076C4.637 3.91 7.56 2.786 10.6 2.786c3.072 0 6.018 1.14 8.26 3.222.224.202.482.294.755.294zm-4.124 4.95c.296 0 .59-.127.814-.35.402-.44.384-1.14-.074-1.563-1.543-1.418-3.55-2.21-5.63-2.21S6.53 7.9 5.006 9.282c-.462.404-.48 1.105-.074 1.563.405.46 1.104.48 1.564.075C7.616 9.89 9.09 9.34 10.6 9.34c1.545 0 3.016.57 4.138 1.62.222.202.498.294.754.294z" fill-rule="evenodd"/></svg>