<svg width="25" height="26" viewBox="0 0 25 26" xmlns="http://www.w3.org/2000/svg"><g fill="none" fill-rule="evenodd"><path d="M12.53 24.277h9.592c.952 0 1.724-.625 1.724-1.394V6.848c0-.77-.772-1.394-1.724-1.394h-8.62l-.037 18.014-.935.81z" stroke="#000" stroke-width="1.5"/><path d="M10.483 6.59c0 .245-.248.444-.493.444H8.34c-.245 0-.443-.2-.443-.443V4.94c0-.243.198-.492.444-.492h1.65c.247 0 .495.25.495.493v1.65m0 3.45c0 .245-.25.444-.494.444H8.34c-.245 0-.443-.2-.443-.443V8.39c0-.245.198-.493.444-.493h1.65c.247 0 .495.248.495.493v1.65m0 3.448c0 .244-.25.443-.494.443H8.34c-.245 0-.443-.196-.443-.44v-1.65c0-.245.198-.493.444-.493h1.65c.247 0 .495.248.495.493v1.65m-4.312-6.9c0 .245-.247.444-.493.444H4.03c-.246 0-.444-.2-.444-.443V4.94c0-.243.198-.492.444-.492h1.65c.245 0 .492.25.492.493v1.65m0 3.45c0 .245-.247.444-.493.444H4.03c-.246 0-.444-.2-.444-.443V8.39c0-.245.198-.493.444-.493h1.65c.245 0 .492.248.492.493v1.65m0 3.448c0 .244-.247.443-.493.443H4.03c-.246 0-.444-.196-.444-.44v-1.65c0-.245.198-.493.444-.493h1.65c.245 0 .492.248.492.493v1.65m15.518-3.45c0 .244-.248.443-.493.443h-1.65c-.245 0-.444-.2-.444-.443V8.39c0-.245.2-.493.444-.493h1.65c.245 0 .493.248.493.493v1.65m0 3.448c0 .244-.248.443-.493.443h-1.65c-.245 0-.444-.196-.444-.44v-1.65c0-.245.2-.493.444-.493h1.65c.245 0 .493.248.493.493v1.65m-4.31-3.45c0 .244-.248.443-.494.443h-1.65c-.244 0-.443-.2-.443-.443V8.39c0-.245.2-.493.444-.493h1.65c.245 0 .492.248.492.493v1.65m0 3.448c0 .244-.25.443-.495.443h-1.65c-.244 0-.443-.196-.443-.44v-1.65c0-.245.2-.493.444-.493h1.65c.245 0 .492.248.492.493v1.65" fill="#000"/><path d="M13.5 22.553c0 .95-.8 1.724-1.784 1.724h-8.93C1.8 24.277 1 23.504 1 22.553V2.725C1 1.772 1.8 1 2.785 1h8.93c.986 0 1.786.772 1.786 1.725v19.828z" stroke="#000" stroke-width="1.5"/></g></svg>