<svg width="14" height="19" viewBox="0 0 14 19" xmlns="http://www.w3.org/2000/svg"><path d="M7.596 11.87v-1.19h3.565c.32 0 .596-.265.596-.593 0-.32-.266-.594-.594-.594H7.597v-2.01c.138-.045.267-.123.375-.235l5.258-5.444c.345-.357.337-.924-.017-1.266-.356-.344-.92-.33-1.264.027L6.84 5.852 2.263.396c-.32-.38-.88-.43-1.258-.113-.38.318-.43.875-.115 1.25L2.27 3.18l3.256 3.88c.082.1.18.175.285.23v2.203H2.84c-.32 0-.594.266-.594.594 0 .32.266.594.595.594h2.97v1.19H2.84c-.32 0-.594.267-.594.595 0 .318.266.594.595.594h2.97v5.04c0 .494.4.9.893.9.495 0 .89-.402.89-.9v-5.04h3.566c.32 0 .594-.266.594-.594 0-.32-.266-.594-.594-.594H7.597z" stroke="#000" fill-rule="evenodd"/></svg>