<svg width="40" height="38" viewBox="0 0 40 38" xmlns="http://www.w3.org/2000/svg" xmlns:xlink="http://www.w3.org/1999/xlink"><defs><path id="a" d="M.346.06h30.596v23.468H.346V.06z"/></defs><g fill="none" fill-rule="evenodd"><rect fill="#FFF" width="40" height="38" rx="4"/><path d="M17.518 29.45c0 1.14.923 2.06 2.06 2.06 1.143 0 2.064-.92 2.064-2.06 0-1.142-.92-2.063-2.063-2.063-1.126 0-2.065.92-2.065 2.062m11.098-9.15c.298 0 .592-.13.813-.35.404-.44.386-1.14-.074-1.566-2.67-2.448-6.13-3.81-9.775-3.81-3.593 0-7.03 1.326-9.683 3.737-.458.405-.48 1.106-.074 1.564.406.46 1.107.48 1.568.076 2.247-2.042 5.17-3.166 8.21-3.166 3.072 0 6.018 1.14 8.26 3.222.224.202.482.294.755.294z" fill="#000"/><g transform="translate(4 8)"><mask id="b" fill="#fff"><use xlink:href="#a"/></mask><path d="M20.492 17.252c.295 0 .59-.128.813-.35.402-.44.384-1.14-.074-1.564-1.542-1.418-3.55-2.21-5.63-2.21s-4.07.774-5.593 2.155c-.462.404-.48 1.105-.074 1.563.405.46 1.104.48 1.564.075 1.123-1.03 2.596-1.58 4.106-1.58 1.545 0 3.016.57 4.138 1.62.223.2.5.295.755.295zM29.79 7.81c.293 0 .587-.13.808-.35.405-.44.387-1.14-.073-1.564C26.438 2.123 21.12.06 15.563.06 10.058.06 4.775 2.104.708 5.786.248 6.19.228 6.89.635 7.35c.403.46 1.104.48 1.564.073 3.66-3.33 8.41-5.153 13.36-5.153 5.003 0 9.79 1.857 13.47 5.245.22.183.497.294.756.294z" fill="#000" mask="url(#b)"/></g></g></svg>